<?xml version="1.0" encoding="UTF-8"?>
<svg version="1.1" xmlns="http://www.w3.org/2000/svg" width="1408" height="768">
<path d="M0 0 C464.64 0 929.28 0 1408 0 C1408 253.44 1408 506.88 1408 768 C943.36 768 478.72 768 0 768 C0 514.56 0 261.12 0 0 Z " fill="#F9FAF5" transform="translate(0,0)"/>
<path d="M0 0 C0.66529724 0.00281982 1.33059448 0.00563965 2.01605225 0.00854492 C29.49797583 0.183689 55.0111584 9.83746261 74.91796875 29.0859375 C77.23150871 31.36033402 77.23150871 31.36033402 79.8515625 33.390625 C103.26018047 52.14801921 115.86612438 86.46669772 119.25 115.3125 C122.0129974 148.92790484 110.32847524 183.76308246 88.76318359 209.56347656 C71.81026609 229.15862032 51.54997741 242.16024861 26.25 248.3125 C25.14700562 248.59287109 25.14700562 248.59287109 24.02172852 248.87890625 C16.60357494 250.58545488 9.27558413 250.6975302 1.6875 250.6875 C1.02525421 250.68728851 0.36300842 250.68707703 -0.31930542 250.68685913 C-10.98311965 250.65290358 -20.6305284 249.70807021 -30.75 246.3125 C-31.84183594 245.97347656 -32.93367188 245.63445312 -34.05859375 245.28515625 C-48.06982237 240.46611679 -60.74239333 232.10666971 -71.75 222.3125 C-72.59949219 221.59449219 -73.44898438 220.87648438 -74.32421875 220.13671875 C-82.88573686 212.75519548 -89.63186621 204.25131867 -95.875 194.875 C-96.2779126 194.28372314 -96.6808252 193.69244629 -97.09594727 193.08325195 C-99.81020621 188.87533685 -99.81020621 188.87533685 -99.4921875 185.90234375 C-99.12480469 185.11537109 -99.12480469 185.11537109 -98.75 184.3125 C-97.1 183.9825 -95.45 183.6525 -93.75 183.3125 C-93.3375 183.90675781 -92.925 184.50101563 -92.5 185.11328125 C-91.26924625 186.87974255 -90.03307355 188.64243455 -88.79296875 190.40234375 C-87.4893111 192.25937041 -86.19879203 194.1257383 -84.92578125 196.00390625 C-73.06431612 213.08740005 -57.08375 224.84598753 -38.75 234.3125 C-37.91210938 234.745625 -37.07421875 235.17875 -36.2109375 235.625 C-25.94273106 240.26927712 -13.80394505 241.52436183 -2.75 243.3125 C-2.76160156 242.24128906 -2.77320313 241.17007813 -2.78515625 240.06640625 C-2.79453299 238.66927257 -2.80363331 237.27213701 -2.8125 235.875 C-2.82087891 235.16794922 -2.82925781 234.46089844 -2.83789062 233.73242188 C-2.84653588 231.92556441 -2.80220011 230.11862397 -2.75 228.3125 C-1.75 227.3125 -1.75 227.3125 0.75 227.1875 C3.25 227.3125 3.25 227.3125 4.25 228.3125 C4.32271741 230.66563555 4.33370868 233.02083668 4.3125 235.375 C4.30347656 236.66535156 4.29445313 237.95570313 4.28515625 239.28515625 C4.26775391 240.78369141 4.26775391 240.78369141 4.25 242.3125 C15.69409238 241.38526011 26.35670578 240.12581964 37.25 236.3125 C38.75240234 235.79042969 38.75240234 235.79042969 40.28515625 235.2578125 C67.04070637 225.03500679 87.50085219 202.8353311 99.16918945 177.14746094 C104.3109303 165.50652594 107.75692077 154.19268063 109.5 141.5625 C109.75910156 139.78359375 109.75910156 139.78359375 110.0234375 137.96875 C110.44210589 135.08459001 110.85078804 132.19940575 111.25 129.3125 C109.64318359 129.32990234 109.64318359 129.32990234 108.00390625 129.34765625 C106.60677257 129.35703299 105.20963701 129.36613331 103.8125 129.375 C103.10544922 129.38337891 102.39839844 129.39175781 101.66992188 129.40039062 C99.86306441 129.40903588 98.05612397 129.36470011 96.25 129.3125 C95.25 128.3125 95.25 128.3125 95.125 125.8125 C95.25 123.3125 95.25 123.3125 96.25 122.3125 C98.60313555 122.23978259 100.95833668 122.22879132 103.3125 122.25 C105.24802734 122.26353516 105.24802734 122.26353516 107.22265625 122.27734375 C108.22167969 122.28894531 109.22070312 122.30054688 110.25 122.3125 C109.20771411 89.89740879 95.16252599 58.98873469 71.7578125 36.46484375 C66.55185749 31.99680448 60.93769948 28.13557575 55.25 24.3125 C54.41726563 23.73371094 53.58453125 23.15492188 52.7265625 22.55859375 C45.75000078 17.9988273 38.01395714 15.50412183 30.14111328 12.93701172 C28.52367836 12.40287816 26.92023396 11.82669214 25.3203125 11.2421875 C21.22243438 10.00135418 17.09978149 9.34783267 12.875 8.6875 C12.04355469 8.5534375 11.21210937 8.419375 10.35546875 8.28125 C8.32102597 7.9538684 6.28560684 7.63256397 4.25 7.3125 C4.25 12.2625 4.25 17.2125 4.25 22.3125 C2.6 22.6425 0.95 22.9725 -0.75 23.3125 C-2.75 21.3125 -2.75 21.3125 -2.9453125 18.0546875 C-2.91050781 16.14042969 -2.91050781 16.14042969 -2.875 14.1875 C-2.85695313 12.90617187 -2.83890625 11.62484375 -2.8203125 10.3046875 C-2.78550781 8.82355469 -2.78550781 8.82355469 -2.75 7.3125 C-27.13059776 10.16754689 -49.04822219 18.16386592 -67.75 34.3125 C-68.48476563 34.90289062 -69.21953125 35.49328125 -69.9765625 36.1015625 C-81.15726834 45.38589421 -88.69790921 57.51511822 -96.0625 69.8515625 C-105.17003093 85.08108648 -115.76221931 98.98958798 -127.3046875 112.4375 C-128.51511719 113.860625 -128.51511719 113.860625 -129.75 115.3125 C-130.53632812 116.17875 -131.32265625 117.045 -132.1328125 117.9375 C-133.95817232 120.11966829 -133.95817232 120.11966829 -133.69140625 122.38671875 C-130.68359373 128.53962984 -124.91290122 133.25098715 -119.7421875 137.57421875 C-117.2934627 139.71085118 -115.03933859 142.00607679 -112.75 144.3125 C-103.94257649 152.86828283 -94.65191789 160.51111633 -84.77978516 167.80908203 C-82.94077475 169.17119727 -81.11587194 170.55005969 -79.29296875 171.93359375 C-64.58051734 182.94289632 -48.19370895 192.41645051 -30.75 198.3125 C-30.10240723 198.53405762 -29.45481445 198.75561523 -28.78759766 198.98388672 C-7.13102673 206.04052219 17.94079897 204.27662338 38.25 194.0625 C54.74274067 184.35103849 64.53916071 171.43597594 72.25 154.3125 C72.68441406 153.35730469 73.11882812 152.40210938 73.56640625 151.41796875 C77.03219893 143.29701541 78.35099322 135.11680709 78.90625 126.34375 C79.25 124.3125 79.25 124.3125 81.25 122.3125 C83.875 122.6875 83.875 122.6875 86.25 123.3125 C87.94648075 142.19998571 80.01004551 163.74444362 68.25 178.3125 C54.33103316 194.97003613 35.51261571 207.9302792 13.515625 211.05859375 C-30.42724789 214.47520468 -68.16315414 193.12368741 -100.75 165.3125 C-101.82252254 164.41359204 -102.89546144 163.5151807 -103.96875 162.6171875 C-116.43889658 152.12115504 -128.367517 140.97954507 -139.75 129.3125 C-143.0408988 130.40946627 -143.71796717 131.16051856 -145.875 133.75 C-153.50322188 142.78604544 -161.57515834 151.32417062 -169.93310547 159.6809082 C-171.62107855 161.37107346 -173.30085724 163.06910834 -174.98046875 164.76757812 C-181.57962545 171.40122182 -188.36852601 177.54079202 -195.75 183.3125 C-196.41596191 183.84834717 -197.08192383 184.38419434 -197.76806641 184.9362793 C-224.77458193 206.60024884 -252.66033946 218.51567715 -287.6171875 214.9140625 C-300.80296358 212.38213043 -312.831321 205.11712447 -322.75 196.3125 C-323.4203125 195.78398437 -324.090625 195.25546875 -324.78125 194.7109375 C-341.64538973 181.12593605 -352.68878591 158.46492095 -355.75 137.3125 C-356.62444522 122.05011409 -356.98157459 106.82118355 -351.75 92.3125 C-351.53569336 91.68778809 -351.32138672 91.06307617 -351.10058594 90.41943359 C-342.23505103 64.79713438 -325.17889517 45.88106252 -301.16796875 34.0390625 C-280.74714276 25.0308706 -258.59255979 27.1495817 -238.20703125 34.8828125 C-218.99526307 42.82801832 -202.63998409 54.96336232 -187.3671875 68.94140625 C-185.9558202 70.22006289 -184.53845396 71.49282566 -183.08911133 72.72827148 C-177.20581531 77.75730775 -171.7350468 83.17515925 -166.27709961 88.6550293 C-164.69040054 90.24708966 -163.09842258 91.8337299 -161.50585938 93.41992188 C-155.15636908 99.76507986 -148.99554493 106.18978077 -143.4375 113.25 C-141.91126242 115.40230875 -141.91126242 115.40230875 -139.75 116.3125 C-139.5025 115.74402344 -139.255 115.17554688 -139 114.58984375 C-137.54904407 111.94638341 -135.8205707 110.06758647 -133.75 107.875 C-120.93467509 93.86850707 -110.56997305 78.03418705 -100.97363281 61.70947266 C-94.72936966 51.23226773 -87.02200086 42.2359588 -78.75 33.3125 C-77.94175781 32.40564453 -77.94175781 32.40564453 -77.1171875 31.48046875 C-57.48645826 10.41935975 -28.18222858 -0.12773011 0 0 Z M-322.75 58.3125 C-323.78447266 59.32763672 -323.78447266 59.32763672 -324.83984375 60.36328125 C-340.86072567 77.20900066 -349.45582151 100.71336767 -349.22460938 123.78344727 C-348.32634251 149.63107639 -337.10092998 173.03710997 -318.375 190.625 C-300.5249846 205.72885919 -281.58115054 210.1187011 -258.75 208.3125 C-253.10095164 207.46601721 -247.96889886 205.57874942 -242.75 203.3125 C-241.98316895 202.98540039 -241.21633789 202.65830078 -240.42626953 202.32128906 C-221.51964463 194.12653702 -205.32275093 182.52151359 -190.2265625 168.578125 C-188.18846744 166.71362163 -186.12038868 164.90701478 -184.02734375 163.10546875 C-179.38521329 159.05389877 -175.0318627 154.74147141 -170.6875 150.375 C-169.5418457 149.23514648 -169.5418457 149.23514648 -168.37304688 148.07226562 C-163.62401766 143.31511147 -159.13093509 138.40812882 -154.75 133.3125 C-153.10855233 131.47523899 -151.46344126 129.64123493 -149.8125 127.8125 C-148.65427734 126.52859375 -148.65427734 126.52859375 -147.47265625 125.21875 C-146.90417969 124.5896875 -146.33570313 123.960625 -145.75 123.3125 C-147.35387327 119.44487418 -149.97606498 116.68558962 -152.8125 113.6875 C-153.82214887 112.60596728 -154.83125731 111.52392981 -155.83984375 110.44140625 C-156.3385498 109.90789551 -156.83725586 109.37438477 -157.35107422 108.82470703 C-159.23141796 106.79209811 -161.04991961 104.70723457 -162.875 102.625 C-167.20143428 97.8056808 -171.7423107 93.21145157 -176.3125 88.625 C-177.02100098 87.91190674 -177.72950195 87.19881348 -178.45947266 86.46411133 C-183.06004667 81.87686459 -187.79851859 77.5178254 -192.75 73.3125 C-193.37221436 72.78358154 -193.99442871 72.25466309 -194.63549805 71.7097168 C-216.62557959 53.19644156 -241.21843354 36.21618619 -270.9375 36.0625 C-272.40413086 36.0315625 -272.40413086 36.0315625 -273.90039062 36 C-292.95858882 35.89922962 -309.44259962 45.22433192 -322.75 58.3125 Z " fill="#1B484A" transform="translate(822.75,259.6875)"/>
<path d="M0 0 C1.0828125 0.37125 1.0828125 0.37125 2.1875 0.75 C2.6015625 2.87109375 2.6015625 2.87109375 2.1875 5.75 C0.26020516 8.09734627 -2.07714906 9.91461333 -4.4375 11.8125 C-5.82422856 12.96873824 -7.21094709 14.1249885 -8.59765625 15.28125 C-9.30422363 15.86132812 -10.01079102 16.44140625 -10.73876953 17.0390625 C-13.82386716 19.58443148 -16.84698781 22.19977534 -19.875 24.8125 C-21.02818705 25.80001517 -22.18183393 26.78699362 -23.3359375 27.7734375 C-25.69915561 29.79504983 -28.05813043 31.82146437 -30.4140625 33.8515625 C-31.30581177 34.61847412 -31.30581177 34.61847412 -32.21557617 35.40087891 C-33.39487252 36.41640651 -34.57215972 37.43427246 -35.74731445 38.45458984 C-38.45823078 40.79518768 -41.18325771 43.06132049 -44.06640625 45.1875 C-50.3533487 49.65177849 -50.3533487 49.65177849 -53.125 56.5 C-53.20878906 57.23605469 -53.29257812 57.97210938 -53.37890625 58.73046875 C-53.90801497 61.19487603 -54.70580384 62.13533172 -56.5625 63.8125 C-60.20170477 65.98202592 -61.67700184 66.61156212 -65.8125 65.75 C-68.46760278 64.1160906 -70.00368859 63.16272516 -71.8125 60.75 C-71.99167969 59.51765625 -72.17085937 58.2853125 -72.35546875 57.015625 C-73.51553132 51.91926185 -76.74052432 50.08066024 -80.95043945 47.32177734 C-81.91554443 46.72059082 -82.88064941 46.1194043 -83.875 45.5 C-85.87036475 44.19618913 -87.86514931 42.89148994 -89.859375 41.5859375 C-90.85775391 40.94366211 -91.85613281 40.30138672 -92.88476562 39.63964844 C-97.17863527 36.86825492 -101.41479813 34.02149399 -105.625 31.125 C-106.69923218 30.41682129 -106.69923218 30.41682129 -107.79516602 29.69433594 C-110.72488125 27.67863969 -112.58435041 26.37542939 -113.82421875 22.9765625 C-113.8125 20.75 -113.8125 20.75 -112.8125 19.75 C-108.65404116 19.06859863 -106.31685103 19.80941684 -102.95703125 22.13671875 C-101.50330548 23.22411034 -100.05980897 24.32526698 -98.625 25.4375 C-97.03791647 26.62304825 -95.44932138 27.80657515 -93.859375 28.98828125 C-92.62670898 29.91181396 -92.62670898 29.91181396 -91.36914062 30.85400391 C-87.09338336 34.02489112 -82.74592303 37.08719376 -78.375 40.125 C-77.56458252 40.70209717 -76.75416504 41.27919434 -75.91918945 41.8737793 C-75.163396 42.3975415 -74.40760254 42.92130371 -73.62890625 43.4609375 C-72.96318604 43.92806152 -72.29746582 44.39518555 -71.61157227 44.87646484 C-69.6546034 46.08561028 -69.6546034 46.08561028 -66.8125 44.75 C-65.26939985 44.85584441 -63.72771253 44.98320266 -62.1875 45.125 C-55.56084541 45.13453475 -52.53382159 42.07313784 -47.8125 37.75 C-46.68029246 36.76712439 -45.54461301 35.78823973 -44.40625 34.8125 C-41.83526629 32.6060512 -39.27439691 30.38883541 -36.72265625 28.16015625 C-27.21731893 19.86214533 -17.6348108 11.67173359 -7.8125 3.75 C-6.94367188 3.00234375 -6.07484375 2.2546875 -5.1796875 1.484375 C-2.8125 -0.25 -2.8125 -0.25 0 0 Z " fill="#1B484A" transform="translate(886.8125,324.25)"/>
<path d="M0 0 C-1.39559727 3.3726934 -2.8921588 5.08045102 -6 7 C-8.25 7.6875 -8.25 7.6875 -10 8 C-9.01 8.99 -8.02 9.98 -7 11 C-30.9934225 19.88645278 -57.00527053 17.39231113 -80.11328125 6.91796875 C-80.73589844 6.61503906 -81.35851562 6.31210937 -82 6 C-81.67 5.01 -81.34 4.02 -81 3 C-80.05125 3.04125 -79.1025 3.0825 -78.125 3.125 C-74.89755144 3.34973818 -74.89755144 3.34973818 -73 1 C-71.91460938 1.34933594 -70.82921875 1.69867188 -69.7109375 2.05859375 C-68.26569339 2.51844415 -66.82037703 2.97806755 -65.375 3.4375 C-64.66214844 3.66759766 -63.94929687 3.89769531 -63.21484375 4.13476562 C-62.51230469 4.35712891 -61.80976562 4.57949219 -61.0859375 4.80859375 C-60.4470459 5.01282959 -59.8081543 5.21706543 -59.14990234 5.42749023 C-37.02336182 11.319693 -20.09973224 0 0 0 Z " fill="#224D50" transform="translate(860,455)"/>
<path d="M0 0 C0.33 0 0.66 0 1 0 C1 4.62 1 9.24 1 14 C16.65388842 12.73166789 30.27850493 9.64824709 45 4 C44.67 5.32 44.34 6.64 44 8 C44.66 8 45.32 8 46 8 C46.495 9.98 46.495 9.98 47 12 C27.97524467 19.50604491 27.97524467 19.50604491 21 20 C20.34 19.67 19.68 19.34 19 19 C17.29636178 18.77377919 15.58671299 18.59111527 13.875 18.4375 C12.96492187 18.35371094 12.05484375 18.26992188 11.1171875 18.18359375 C10.41851563 18.12300781 9.71984375 18.06242187 9 18 C9.33 17.34 9.66 16.68 10 16 C6.7 15.67 3.4 15.34 0 15 C0 10.05 0 5.1 0 0 Z " fill="#1C484A" transform="translate(826,488)"/>
<path d="M0 0 C13.70164509 -0.52474385 26.03953144 1.22509053 39 6 C39 6.99 39 7.98 39 9 C37.68 9 36.36 9 35 9 C34.67 9.99 34.34 10.98 34 12 C33.41992188 11.86722656 32.83984375 11.73445313 32.2421875 11.59765625 C31.46101562 11.42105469 30.67984375 11.24445313 29.875 11.0625 C29.10929688 10.88847656 28.34359375 10.71445312 27.5546875 10.53515625 C21.73388371 9.31581356 16.05139831 8.74386466 10.125 8.4375 C9.34125 8.39431641 8.5575 8.35113281 7.75 8.30664062 C5.83349351 8.20146649 3.91676667 8.10032075 2 8 C2 7.67 2 7.34 2 7 C7.94 6.505 7.94 6.505 14 6 C13.67 5.01 13.34 4.02 13 3 C8.71 2.67 4.42 2.34 0 2 C0 1.34 0 0.68 0 0 Z " fill="#19484A" transform="translate(544,288)"/>
<path d="M0 0 C0.91330078 0.05671875 1.82660156 0.1134375 2.76757812 0.171875 C4.99187982 0.3116217 7.21474097 0.46282032 9.4375 0.625 C9.4375 1.945 9.4375 3.265 9.4375 4.625 C10.0975 4.955 10.7575 5.285 11.4375 5.625 C8.22967315 5.963329 5.02116902 6.29476146 1.8125 6.625 C0.90886719 6.72039062 0.00523437 6.81578125 -0.92578125 6.9140625 C-5.49313039 7.38079891 -9.96367188 7.74722799 -14.5625 7.625 C-14.5625 7.295 -14.5625 6.965 -14.5625 6.625 C-16.2125 6.295 -17.8625 5.965 -19.5625 5.625 C-19.5625 4.305 -19.5625 2.985 -19.5625 1.625 C-12.77050006 -0.18527872 -6.98622638 -0.51256246 0 0 Z " fill="#164547" transform="translate(548.5625,289.375)"/>
<path d="M0 0 C7.1191234 -0.8089913 12.62116486 2.06720223 19 5 C19 5.99 19 6.98 19 8 C13.95531271 10.21474076 11.14089313 9.85072153 6 8 C6 7.34 6 6.68 6 6 C4.35 6 2.7 6 1 6 C0.67 4.02 0.34 2.04 0 0 Z " fill="#19484A" transform="translate(846,263)"/>
<path d="M0 0 C0.33 0 0.66 0 1 0 C1 4.62 1 9.24 1 14 C11.89 13.505 11.89 13.505 23 13 C22.67 14.32 22.34 15.64 22 17 C19.35541621 18.32229189 17.32238699 18.09677194 14.375 18.0625 C13.37210938 18.05347656 12.36921875 18.04445313 11.3359375 18.03515625 C10.56507813 18.02355469 9.79421875 18.01195312 9 18 C9.33 17.34 9.66 16.68 10 16 C6.7 15.67 3.4 15.34 0 15 C0 10.05 0 5.1 0 0 Z " fill="#345D5F" transform="translate(826,488)"/>
<path d="M0 0 C0.65597672 0.00141495 1.31195343 0.0028299 1.98780823 0.00428772 C4.05572327 0.00982594 6.12352467 0.02236623 8.19140625 0.03515625 C9.60481613 0.04017926 11.01822773 0.04474075 12.43164062 0.04882812 C15.87243193 0.05977499 19.31315797 0.07699587 22.75390625 0.09765625 C22.75390625 0.42765625 22.75390625 0.75765625 22.75390625 1.09765625 C15.54451119 3.00003065 8.88007397 3.40238587 1.44140625 3.34765625 C0.37083984 3.35539062 -0.69972656 3.363125 -1.80273438 3.37109375 C-2.83205078 3.36851562 -3.86136719 3.3659375 -4.921875 3.36328125 C-5.84911377 3.36102539 -6.77635254 3.35876953 -7.73168945 3.35644531 C-10.34998167 3.08696383 -11.99522383 2.42530364 -14.24609375 1.09765625 C-9.44614172 0.31964944 -4.86047311 -0.0208604 0 0 Z " fill="#204D4D" transform="translate(815.24609375,259.90234375)"/>
<path d="M0 0 C5.28 0 10.56 0 16 0 C16 0.33 16 0.66 16 1 C14.35 1.33 12.7 1.66 11 2 C12.32 2.99 13.64 3.98 15 5 C11.87645029 5.91740621 9.06313562 6.13460306 5.8125 6.125 C4.93207031 6.12757813 4.05164063 6.13015625 3.14453125 6.1328125 C1 6 1 6 0 5 C0 3.35 0 1.7 0 0 Z " fill="#123F41" transform="translate(918,383)"/>
<path d="M0 0 C2.39591038 -0.02712351 4.79150957 -0.0468982 7.1875 -0.0625 C7.86103516 -0.07087891 8.53457031 -0.07925781 9.22851562 -0.08789062 C12.95434131 -0.10606538 16.3788042 0.10700608 20 1 C20.33 1.99 20.66 2.98 21 4 C19.68 4.33 18.36 4.66 17 5 C17 5.99 17 6.98 17 8 C12.05 8 7.1 8 2 8 C2 7.67 2 7.34 2 7 C7.94 6.505 7.94 6.505 14 6 C13.67 5.01 13.34 4.02 13 3 C8.71 2.67 4.42 2.34 0 2 C0 1.34 0 0.68 0 0 Z " fill="#335C5E" transform="translate(544,288)"/>
<path d="M0 0 C2.64 0.99 5.28 1.98 8 3 C7.01 3.495 7.01 3.495 6 4 C5.67 4.99 5.34 5.98 5 7 C4.34 6.67 3.68 6.34 3 6 C3.33 7.32 3.66 8.64 4 10 C-0.62 8.35 -5.24 6.7 -10 5 C-8.68 4.67 -7.36 4.34 -6 4 C-2.24460727 2.90080731 -2.24460727 2.90080731 0 0 Z " fill="#255254" transform="translate(865,268)"/>
<path d="M0 0 C0.66 0.33 1.32 0.66 2 1 C2.625 3.5625 2.625 3.5625 3 6 C3.639375 6.103125 4.27875 6.20625 4.9375 6.3125 C5.618125 6.539375 6.29875 6.76625 7 7 C7.33 7.99 7.66 8.98 8 10 C6.98679687 9.79503906 5.97359375 9.59007812 4.9296875 9.37890625 C3.5781355 9.10671869 2.22657241 8.83458621 0.875 8.5625 C-0.12273438 8.36043945 -0.12273438 8.36043945 -1.140625 8.15429688 C-5.08346807 7.36186273 -9.02912121 6.63707245 -13 6 C-12.67 5.01 -12.34 4.02 -12 3 C-8.37 3 -4.74 3 -1 3 C-0.67 2.01 -0.34 1.02 0 0 Z " fill="#265355" transform="translate(845,262)"/>
<path d="M0 0 C0.33 0 0.66 0 1 0 C1.33 1.98 1.66 3.96 2 6 C2.99 6.33 3.98 6.66 5 7 C5.33 4.69 5.66 2.38 6 0 C6.33 0 6.66 0 7 0 C7 4.95 7 9.9 7 15 C5.35 15.33 3.7 15.66 2 16 C0 14 0 14 -0.1953125 10.7421875 C-0.17210937 9.46601563 -0.14890625 8.18984375 -0.125 6.875 C-0.10695313 5.59367187 -0.08890625 4.31234375 -0.0703125 2.9921875 C-0.04710937 2.00476563 -0.02390625 1.01734375 0 0 Z " fill="#385E5E" transform="translate(820,267)"/>
<path d="M0 0 C1.50433594 0.29197266 1.50433594 0.29197266 3.0390625 0.58984375 C4.19535156 0.82380859 4.19535156 0.82380859 5.375 1.0625 C2.69755812 3.16057945 0.75310112 4.45926766 -2.625 5.0625 C-2.625 5.7225 -2.625 6.3825 -2.625 7.0625 C-3.945 7.0625 -5.265 7.0625 -6.625 7.0625 C-6.955 4.7525 -7.285 2.4425 -7.625 0.0625 C-4.81015955 -1.34492022 -3.05563887 -0.60402164 0 0 Z " fill="#245051" transform="translate(801.625,499.9375)"/>
<path d="M0 0 C3 1 3 1 4.1875 3.0625 C4.455625 3.701875 4.72375 4.34125 5 5 C4.236875 5.061875 3.47375 5.12375 2.6875 5.1875 C-0.22436846 5.73936354 -0.22436846 5.73936354 -1.5 8.5 C-3 11 -3 11 -5.6875 11.8125 C-6.450625 11.874375 -7.21375 11.93625 -8 12 C-5.6163187 7.65829477 -3.21880117 3.7935871 0 0 Z " fill="#214C4D" transform="translate(734,304)"/>
<path d="M0 0 C5.94 0.33 11.88 0.66 18 1 C18.33 1.99 18.66 2.98 19 4 C17.81921875 3.98839844 16.6384375 3.97679687 15.421875 3.96484375 C13.86458492 3.95546248 12.30729312 3.94636264 10.75 3.9375 C9.97269531 3.92912109 9.19539062 3.92074219 8.39453125 3.91210938 C7.64042969 3.90888672 6.88632812 3.90566406 6.109375 3.90234375 C5.41811523 3.89710693 4.72685547 3.89187012 4.01464844 3.88647461 C1.90026102 4.00562029 0.03358485 4.42381763 -2 5 C-1.34 3.35 -0.68 1.7 0 0 Z " fill="#0A3C3E" transform="translate(801,262)"/>
<path d="M0 0 C0.66 0 1.32 0 2 0 C2.65234375 1.765625 2.65234375 1.765625 3 4 C2.00390625 5.921875 2.00390625 5.921875 0.5625 7.75 C0.08941406 8.36359375 -0.38367188 8.9771875 -0.87109375 9.609375 C-1.24363281 10.06828125 -1.61617187 10.5271875 -2 11 C-3.32 9.35 -4.64 7.7 -6 6 C-5.38125 5.7525 -4.7625 5.505 -4.125 5.25 C-1.64931313 3.79371361 -1.04874998 2.62187494 0 0 Z M-8 7 C-7.34 7 -6.68 7 -6 7 C-6.33 7.99 -6.66 8.98 -7 10 C-7.33 9.01 -7.66 8.02 -8 7 Z " fill="#123F41" transform="translate(734,309)"/>
<path d="M0 0 C4.875 1.75 4.875 1.75 6 4 C5.01 4 4.02 4 3 4 C2.67 4.99 2.34 5.98 2 7 C1.01 7.33 0.02 7.66 -1 8 C-2.65 6.35 -4.3 4.7 -6 3 C-5.195625 2.87625 -4.39125 2.7525 -3.5625 2.625 C-2.716875 2.41875 -1.87125 2.2125 -1 2 C-0.67 1.34 -0.34 0.68 0 0 Z " fill="#225051" transform="translate(738,429)"/>
<path d="M0 0 C3 1 3 1 4 2 C5.67542976 1.71395102 7.34385343 1.38218767 9 1 C8.34 2.65 7.68 4.3 7 6 C-0.42857143 6.28571429 -0.42857143 6.28571429 -4 4 C-2.68 2.68 -1.36 1.36 0 0 Z " fill="#104042" transform="translate(787,266)"/>
<path d="M0 0 C-0.33 2.97 -0.66 5.94 -1 9 C-1.99 9.33 -2.98 9.66 -4 10 C-4 8.68 -4 7.36 -4 6 C-5.32 5.34 -6.64 4.68 -8 4 C-2.7826087 0 -2.7826087 0 0 0 Z " fill="#224D4F" transform="translate(595,456)"/>
<path d="M0 0 C2.60499763 3.90749644 1.87453355 6.64782846 1.25 11.0625 C1.11851562 12.16174805 1.11851562 12.16174805 0.984375 13.28320312 C0.26324405 18.73675595 0.26324405 18.73675595 -2 21 C-2.2494783 13.70968976 -1.72330907 7.09326321 0 0 Z " fill="#254948" transform="translate(469,358)"/>
<path d="M0 0 C-0.625 1.9375 -0.625 1.9375 -2 4 C-6.81005517 5.56606447 -10.30113159 4.59761526 -15 3 C-15 2.67 -15 2.34 -15 2 C-13.43883181 1.66048381 -11.87598662 1.32867456 -10.3125 1 C-9.44238281 0.814375 -8.57226562 0.62875 -7.67578125 0.4375 C-5.06287036 0.01027953 -2.64186962 -0.07616201 0 0 Z " fill="#144245" transform="translate(573,466)"/>
<path d="M0 0 C-1.4317521 5.01113235 -3.98445693 6.94469549 -8 10 C-8 7 -8 7 -7 6 C-7.33 5.01 -7.66 4.02 -8 3 C-4.93882432 0.37613513 -4.26826873 0 0 0 Z " fill="#154144" transform="translate(699,366)"/>
<path d="M0 0 C0 3 0 3 -2.40625 5.69921875 C-3.4299968 6.70302243 -4.4616054 7.69885649 -5.5 8.6875 C-6.02464844 9.19861328 -6.54929687 9.70972656 -7.08984375 10.23632812 C-8.38660904 11.49772708 -9.69246117 12.74977212 -11 14 C-11.99 13.67 -12.98 13.34 -14 13 C-4.58997722 3.40546697 -4.58997722 3.40546697 0 0 Z " fill="#2D5354" transform="translate(504,304)"/>
<path d="M0 0 C0 0.33 0 0.66 0 1 C1.65 1.33 3.3 1.66 5 2 C5.33 2.99 5.66 3.98 6 5 C2.9465865 5.29359745 0.04256578 5.4451258 -3 5 C-5.5625 2.5 -5.5625 2.5 -7 0 C-3.86650268 -1.04449911 -3.01031744 -0.93423645 0 0 Z " fill="#235053" transform="translate(530,293)"/>
<path d="M0 0 C-1.79061272 1.79061272 -4.39677742 1.17289466 -6.8125 1.1875 C-7.87082031 1.20167969 -8.92914062 1.21585937 -10.01953125 1.23046875 C-12.9204626 1.00615034 -14.54818353 0.50196021 -17 -1 C-4.54918033 -3.03278689 -4.54918033 -3.03278689 0 0 Z " fill="#2A5454" transform="translate(818,262)"/>
<path d="M0 0 C1 2 1 2 0.375 4.0625 C-1 6 -1 6 -3.4375 6.875 C-6 7 -6 7 -9 5 C-8.43410156 4.72285156 -7.86820313 4.44570313 -7.28515625 4.16015625 C-6.55167969 3.79792969 -5.81820312 3.43570312 -5.0625 3.0625 C-3.96615234 2.52302734 -3.96615234 2.52302734 -2.84765625 1.97265625 C-1.03750973 1.13628173 -1.03750973 1.13628173 0 0 Z " fill="#113E40" transform="translate(858,458)"/>
<path d="M0 0 C0 0.99 0 1.98 0 3 C-1.32 3 -2.64 3 -4 3 C-4.33 3.99 -4.66 4.98 -5 6 C-5.99 5.67 -6.98 5.34 -8 5 C-7.34 4.67 -6.68 4.34 -6 4 C-6.66 3.67 -7.32 3.34 -8 3 C-8 2.34 -8 1.68 -8 1 C-4.93251126 -0.86240388 -3.40254489 -1.2151946 0 0 Z " fill="#204F52" transform="translate(583,294)"/>
<path d="M0 0 C0.99 0.33 1.98 0.66 3 1 C0.03 3.97 -2.94 6.94 -6 10 C-6.66 9.67 -7.32 9.34 -8 9 C-5.36 6.03 -2.72 3.06 0 0 Z " fill="#284D4F" transform="translate(667,393)"/>
<path d="M0 0 C2.31 0 4.62 0 7 0 C7 0.99 7 1.98 7 3 C2.87831311 4.62950412 0.29299643 5.26264601 -4 4 C-3.01 3.67 -2.02 3.34 -1 3 C-0.67 2.01 -0.34 1.02 0 0 Z " fill="#0B3E41" transform="translate(858,268)"/>
<path d="M0 0 C2.40072955 2.88087546 4.47291037 5.56404834 6 9 C5.01 9.495 5.01 9.495 4 10 C2.35 8.68 0.7 7.36 -1 6 C-0.67 4.02 -0.34 2.04 0 0 Z " fill="#234E50" transform="translate(730,445)"/>
<path d="M0 0 C1.65 0.33 3.3 0.66 5 1 C5 2.32 5 3.64 5 5 C2.5 7.25 2.5 7.25 0 9 C-0.33 8.01 -0.66 7.02 -1 6 C-0.34 6 0.32 6 1 6 C0.67 4.02 0.34 2.04 0 0 Z " fill="#1E4C4E" transform="translate(911,307)"/>
<path d="M0 0 C0.33 0.99 0.66 1.98 1 3 C-1.64 5.64 -4.28 8.28 -7 11 C-7.33 10.01 -7.66 9.02 -8 8 C-5.36 5.36 -2.72 2.72 0 0 Z " fill="#264C4D" transform="translate(745,292)"/>
<path d="M0 0 C-5.57468542 3.61601216 -10.60567654 3.30720059 -17 3 C-17 2.67 -17 2.34 -17 2 C-14.91952703 1.4678559 -12.83547707 0.94968214 -10.75 0.4375 C-9.58984375 0.14746094 -8.4296875 -0.14257812 -7.234375 -0.44140625 C-4.27909017 -0.95179964 -2.75565899 -1.02996165 0 0 Z " fill="#D9E7E6" transform="translate(850,468)"/>
<path d="M0 0 C0.99 0 1.98 0 3 0 C2.67 2.31 2.34 4.62 2 7 C1.01 7 0.02 7 -1 7 C-1.04254356 5.00045254 -1.04080783 2.99958364 -1 1 C-0.67 0.67 -0.34 0.34 0 0 Z " fill="#194547" transform="translate(901,410)"/>
<path d="M0 0 C0.99 0 1.98 0 3 0 C3.33 2.31 3.66 4.62 4 7 C2.02 5.35 0.04 3.7 -2 2 C-1.34 1.34 -0.68 0.68 0 0 Z " fill="#164244" transform="translate(498,450)"/>
<path d="M0 0 C0.66 0.33 1.32 0.66 2 1 C0.60667426 4.36720387 -0.9789286 5.9859524 -4 8 C-4 6.68 -4 5.36 -4 4 C-3.34 4 -2.68 4 -2 4 C-2 3.34 -2 2.68 -2 2 C-1.34 2 -0.68 2 0 2 C0 1.34 0 0.68 0 0 Z " fill="#264C4E" transform="translate(669,398)"/>
<path d="M0 0 C0.66 0.99 1.32 1.98 2 3 C0.68 5.31 -0.64 7.62 -2 10 C-2.66 10 -3.32 10 -4 10 C-2.8905928 6.51329166 -1.73662334 3.22515763 0 0 Z " fill="#385C5D" transform="translate(479,333)"/>
<path d="M0 0 C2 3 2 3 1.625 6.1875 C1.41875 7.115625 1.2125 8.04375 1 9 C0.34 9 -0.32 9 -1 9 C-0.67 6.03 -0.34 3.06 0 0 Z " fill="#2D5352" transform="translate(469,358)"/>
<path d="M0 0 C2.1875 0.3125 2.1875 0.3125 4 1 C4 1.66 4 2.32 4 3 C3.01 3.33 2.02 3.66 1 4 C0.34 4.66 -0.32 5.32 -1 6 C-1.66 5.01 -2.32 4.02 -3 3 C-1.75 1.4375 -1.75 1.4375 0 0 Z " fill="#19484A" transform="translate(865,268)"/>
</svg>
